<svg viewBox="0 0 271 72" xmlns="http://www.w3.org/2000/svg" width="271" height="72" fill="none"><rect width="72" height="72" rx="16" fill="white"></rect><path d="M12.5003 52V29.5101C12.5003 27.8605 12.7927 26.124 14 25C16.0499 23.0915 19.3373 24.4775 21.9749 25.4195L25.0003 26.5V23.3734C25.0003 21.4886 25.256 19.2148 27 18.5C28.5615 17.86 30.3256 18.2751 31.9266 18.8088L38.5 21V18.3962C38.5 16.4936 38.6563 13.9688 40.5003 13.5C41.2714 13.3039 42.446 13.4274 42.8544 13.4798C42.9518 13.4923 43.0474 13.5146 43.1413 13.5437L56.0928 17.5633C56.9297 17.823 57.5 18.5972 57.5 19.4734V44.7014C57.5 45.4912 57.0354 46.2095 56.2821 46.4466C55.4101 46.7211 54.1852 47.0174 53 47C51.8326 46.9828 50.6268 46.698 49.7576 46.4367C48.985 46.2045 48.5 45.4747 48.5 44.6679V27.4896C48.5 26.5358 48.1211 25.6211 47.4467 24.9466L46.2917 23.7915C46.1373 23.6371 45.8923 23.8379 46.0134 24.0196C46.6569 24.9849 47.0003 26.119 47.0003 27.2791V49.4882C47.0003 50.3826 46.4071 51.1687 45.536 51.3718C44.3775 51.6419 42.7519 51.9659 41.5 52C39.9356 52.0425 37.8642 51.6619 36.4846 51.358C35.6033 51.1639 35 50.3737 35 49.4714V32.4791C35 31.532 34.6238 30.6238 33.9541 29.9541L32.978 28.978C32.8361 28.8361 32.6084 29.0138 32.7117 29.186C33.2277 30.0458 33.5003 31.0265 33.5003 32.0292V55.514C33.5003 55.8438 33.5117 56.3064 33.4958 56.6359C33.3728 59.1734 29.7635 58.1726 27.3076 57.5225L14.0003 54C12.6417 53.6409 12.492 53.1045 12.5003 52Z" fill="#07f"></path></svg>